# AST/ASF file generated using VICON BodyLanguage
# -----------------------------------------------
:version 1.10
:name VICON
:units
  mass 1.0
  length 0.45
  angle deg
:documentation
   .ast/.asf automatically generated from VICON data using
   VICON BodyBuilder and BodyLanguage model FoxedUp or BRILLIANT.MOD
:root
   order TX TY TZ RX RY RZ
   axis XYZ
   position 0 0 0  
   orientation 0 0 0 
:bonedata
  begin
     id 1 
     name lhipjoint
     direction 0.646657 -0.683706 0.338203 
     length 2.4948 
     axis 0 0 0  XYZ
  end
  begin
     id 2 
     name lfemur
     direction 0.34202 -0.939693 0  
     length 6.79491  
     axis 0 0 20  XYZ
    dof rx ry rz
    limits (-160.0 20.0)
           (-70.0 70.0)
           (-60.0 70.0)
  end
  begin
     id 3 
     name ltibia
     direction 0.34202 -0.939693 0   
     length 7.56807   
     axis 0 0 20   XYZ
    dof rx
    limits (-10.0 170.0)
  end
  begin
     id 4 
     name lfoot
     direction 0.0679796 -0.186772 0.980048   
     length 2.53018   
     axis -90 7.62852e-016 20   XYZ
    dof rx rz
    limits (-45.0 90.0)
           (-70.0 20.0)
  end
  begin
     id 5 
     name ltoes
     direction 1.53625e-011 -4.21881e-011 1   
     length 1.26912   
     axis -90 7.62852e-016 20   XYZ
    dof rx
    limits (-90.0 20.0)
  end
  begin
     id 6 
     name rhipjoint
     direction -0.618868 -0.704065 0.348274   
     length 2.42265  
     axis 0 0 0  XYZ 
  end
  begin
     id 7 
     name rfemur
     direction -0.34202 -0.939693 0   
     length 6.73814   
     axis 0 0 -20   XYZ
    dof rx ry rz
    limits (-160.0 20.0)
           (-70.0 70.0)
           (-70.0 60.0)
  end
  begin
     id 8 
     name rtibia
     direction -0.34202 -0.939693 0   
     length 7.66799   
     axis 0 0 -20   XYZ
    dof rx
    limits (-10.0 170.0)
 end
 begin
     id 9 
     name rfoot
     direction -0.0727352 -0.199838 0.977125   
     length 2.57224  
     axis -90 -7.62852e-016 -20   XYZ
    dof rx rz
    limits (-45.0 90.0)
           (-20.0 70.0)
  end
  begin
     id 10 
     name rtoes
     direction -1.53501e-011 -4.21858e-011 1   
     length 1.28858   
     axis -90 -7.62852e-016 -20   XYZ
    dof rx
    limits (-90.0 20.0)
  end
  begin
     id 11 
     name lowerback
     direction -0.0172471 0.995767 -0.0902851   
     length 2.20206   
     axis 0 0 0   XYZ
    dof rx ry rz
    limits (-20.0 45.0)
           (-30.0 30.0)
           (-30.0 30.0)
  end
  begin
     id 12 
     name upperback
     direction -0.000110737 0.999714 0.0239043   
     length 2.19523   
     axis 0 0 0   XYZ
    dof rx ry rz
    limits (-20.0 45.0)
           (-30.0 30.0)
           (-30.0 30.0)
  end
  begin
     id 13 
     name thorax
     direction 0.00704869 0.997783 0.0661741   
     length 2.21977   
     axis 0 0 0   XYZ
    dof rx ry rz
    limits (-20.0 45.0)
           (-30.0 30.0)
           (-30.0 30.0)
  end
  begin
     id 14 
     name lowerneck
     direction -0.00407501 0.995527 0.0943846   
     length 1.83142   
     axis 0 0 0   XYZ
    dof rx ry rz
    limits (-20.0 45.0)
           (-30.0 30.0)
           (-30.0 30.0)
  end
  begin
     id 15 
     name upperneck
     direction 0.0640586 0.986486 -0.150807   
     length 1.84616   
     axis 0 0 0   XYZ
    dof rx ry rz
    limits (-20.0 45.0)
           (-30.0 30.0)
           (-30.0 30.0)
  end
  begin
     id 16
     name head
     direction 0.0188017 0.99791 -0.0618239  
     length 1.85932  
     axis 0 0 0   XYZ
    dof rx ry rz
    limits (-20.0 45.0)
           (-30.0 30.0)
           (-30.0 30.0)
  end
  begin
     id 17 
     name lclavicle
     direction 0.976074 0.206905 0.066852  
     length 3.81043  
     axis 0 0 0   XYZ
    dof ry rz
    limits (-20.0 10.0)
           (0.0 20.0)
  end
  begin
     id 18 
     name lhumerus
     direction 1 -4.48971e-011 1.86916e-027   
     length 5.37587   
     axis 180 -30 -90   XYZ
    dof rx ry rz
    limits (-60.0 90.0)
           (-90.0 90.0)
           (-90.0 90.0)
  end
  begin
     id 19
     name lradius
     direction 1 -4.48968e-011 1.69187e-027   
     length 3.35977   
     axis 180 -30 -90   XYZ
    dof rx
    limits (-10.0 170.0)
  end
  begin
     id 20
     name lwrist
     direction 1 -4.48968e-011 5.8978e-027   
     length 1.67988   
     axis -3.27506e-015 90 90   XYZ
    dof ry
    limits (-180.0 0.0)
 end
  begin
     id 21 
     name lhand
     direction 1 -4.49028e-011 1.18071e-026   
     length 0.561859   
     axis -7.52654e-015 90 90   XYZ
    dof rx rz
    limits (-90.0 90.0)
           (-45.0 45.0)
  end
  begin
     id 22 
     name lfingers
     direction 1 -4.48927e-011 2.35758e-026   
     length 0.452985   
     axis -1.50534e-014 90 90   XYZ
    dof rx
    limits (0.0 90.0)
  end
  begin
     id 23
     name lthumb
     direction 0.707107 -6.34898e-011 0.707107   
     length 0.650399   
     axis -90 45 5.69224e-014   XYZ
    dof rx rz
    limits (-45.0 45.0)
           (-45.0 45.0)
  end
  begin
     id 24 
     name rclavicle
     direction -0.988403 0.151789 0.00439714   
     length 3.6942  
     axis 0 0 0   XYZ 
    dof ry rz
    limits (-10.0 20.0)
           (-20.0 0.0)
  end
  begin
     id 25 
     name rhumerus
     direction -1 -4.48978e-011 1.62495e-027  
     length 5.22819   
     axis 180 30 90   XYZ
    dof rx ry rz
    limits (-90.0 60.0)
           (-90.0 90.0)
           (-90.0 90.0)
  end
  begin
     id 26 
     name rradius
     direction -1 -4.48961e-011 3.47796e-027   
     length 3.40764   
     axis 180 30 90   XYZ
    dof rx
    limits (-10.0 170.0)
  end
  begin
     id 27 
     name rwrist
     direction -1 -4.48949e-011 5.89602e-027   
     length 1.70382   
     axis -3.27506e-015 -90 -90   XYZ
    dof ry
    limits (-180.0 0.0)
  end
  begin
     id 28
     name rhand
     direction -1 -4.48977e-011 1.17973e-026   
     length 0.583255   
     axis -7.52654e-015 -90 -90   XYZ
    dof rx rz
    limits (-90.0 90.0)
           (-45.0 45.0)
  end
  begin
     id 29
     name rfingers
     direction -1 -4.49099e-011 2.36408e-026   
     length 0.470235   
     axis -1.50534e-014 -90 -90   XYZ
    dof rx
    limits (0.0 90.0)
  end
  begin
     id 30
     name rthumb
     direction -0.707107 -6.35011e-011 0.707107   
     length 0.675167   
     axis -90 -45 -5.69224e-014   XYZ
    dof rx rz
    limits (-45.0 45.0)
           (-45.0 45.0)
  end
:hierarchy
  begin
    root lhipjoint rhipjoint lowerback
    lhipjoint lfemur
    lfemur ltibia
    ltibia lfoot
    lfoot ltoes
    rhipjoint rfemur
    rfemur rtibia
    rtibia rfoot
    rfoot rtoes
    lowerback upperback
    upperback thorax
    thorax lowerneck lclavicle rclavicle
    lowerneck upperneck
    upperneck head
    lclavicle lhumerus
    lhumerus lradius
    lradius lwrist
    lwrist lhand lthumb
    lhand lfingers
    rclavicle rhumerus
    rhumerus rradius
    rradius rwrist
    rwrist rhand rthumb
    rhand rfingers
  end

#!OML:ASF G:\JayActor3\Patient Classification 1\Patient 1\Session 2\male.ASF
:FULLY-SPECIFIED
:DEGREES
414
root 23.6727 15.8638 -7.07364 478.758 -80.0654 -471.45
lowerback 5.05699 2.82175 1.33647
upperback 1.8176 3.66723 -4.43643
thorax -0.578815 1.81588 -5.5331
lowerneck -10.3458 -3.33457 -6.3894
upperneck -1.54619 -4.1725 12.6763
head 1.66051 -1.86287 4.68694
rclavicle -1.74931e-014 -4.45278e-014
rhumerus -30.0877 18.1666 -99.9882
rradius 68.2416
rwrist -9.59829
rhand -26.5715 1.81501
rfingers 7.12502
rthumb -0.00626205 -28.1647
lclavicle -1.74931e-014 -4.45278e-014
lhumerus -64.5551 -2.77852 68.6426
lradius 31.5031
lwrist 17.1136
lhand -15.7214 20.8606
lfingers 7.12502
lthumb 10.4689 50.58
rfemur 16.8434 -5.31508 27.0142
rtibia 34.4991
rfoot 9.32923 -16.0493
rtoes 14.4191
lfemur -47.6196 12.0353 -15.4318
ltibia 46.678
lfoot -8.79737 4.28518
ltoes -9.01316
415
root 23.3957 15.8865 -7.067 480.827 -79.9774 -474.038
lowerback 5.36475 2.67554 1.05886
upperback 1.79575 3.44456 -4.55081
thorax -0.80602 1.69587 -5.50392
lowerneck -10.278 -3.36278 -6.53965
upperneck -1.48046 -4.21738 13.0216
head 1.68772 -1.88029 4.81635
rclavicle 2.70347e-014 8.26944e-014
rhumerus -31.1153 17.3443 -100.78
rradius 65.8553
rwrist -10.1231
rhand -27.1402 1.37237
rfingers 7.12502
rthumb -0.555521 -28.6066
lclavicle 2.70347e-014 8.26944e-014
lhumerus -62.6154 -0.81473 68.013
lradius 30.5012
lwrist 16.6834
lhand -17.0858 20.908
lfingers 7.12502
lthumb 9.15252 50.6893
rfemur 15.613 -5.30003 26.2715
rtibia 38.0775
rfoot 9.40708 -16.7135
rtoes 13.7365
lfemur -46.2428 12.4158 -15.3597
ltibia 47.4229
lfoot -9.50359 4.28824
ltoes -7.17788
416
root 23.1203 15.9174 -7.05553 483.383 -79.9277 -477.12
lowerback 5.57289 2.53509 0.724208
upperback 1.78624 3.22637 -4.65342
thorax -0.967322 1.57967 -5.4222
lowerneck -10.2596 -3.37858 -6.63652
upperneck -1.32526 -4.25788 13.3462
head 1.74719 -1.8919 4.92988
rclavicle -4.85035e-014 -2.54444e-014
rhumerus -32.0329 16.625 -101.404
rradius 63.1913
rwrist -10.5468
rhand -27.7165 0.926524
rfingers 7.12502
rthumb -1.1121 -29.0503
lclavicle -4.85035e-014 -2.54444e-014
lhumerus -60.5911 1.49911 67.2476
lradius 29.5013
lwrist 16.1221
lhand -18.7173 20.9042
lfingers 7.12502
lthumb 7.57807 50.7485
rfemur 14.296 -5.20954 25.4319
rtibia 41.6215
rfoot 8.78869 -17.0698
rtoes 13.5319
lfemur -44.6529 12.7593 -15.3648
ltibia 47.8767
lfoot -10.3036 4.40016
ltoes -5.74312
417
root 22.8472 15.9569 -7.04039 486.309 -79.9027 -480.555
lowerback 5.68281 2.40117 0.342252
upperback 1.77561 3.01522 -4.7435
thorax -1.07595 1.46828 -5.29423
lowerneck -10.2788 -3.38439 -6.69012
upperneck -1.0866 -4.29665 13.6541
head 1.83582 -1.89904 5.0305
rclavicle -1.03368e-014 3.18055e-014
rhumerus -32.8375 15.9586 -101.852
rradius 60.2417
rwrist -10.835
rhand -28.2237 0.579661
rfingers 7.12502
rthumb -1.60197 -29.3941
lclavicle -1.03368e-014 3.18055e-014
lhumerus -58.5068 4.11427 66.4135
lradius 28.5055
lwrist 15.4583
lhand -20.6154 20.872
lfingers 7.12502
lthumb 5.74569 50.7741
rfemur 12.8689 -5.04819 24.5362
rtibia 45.0968
rfoot 7.64369 -17.048
rtoes 13.5979
lfemur -42.8941 13.0805 -15.4527
ltibia 48.0303
lfoot -11.1454 4.58145
ltoes -4.71319
418
root 22.5764 16.0059 -7.02293 489.439 -79.8713 -484.159
lowerback 5.6984 2.27642 -0.0585453
upperback 1.75321 2.81796 -4.81118
thorax -1.14292 1.3651 -5.12764
lowerneck -10.3377 -3.38459 -6.70707
upperneck -0.764807 -4.33857 13.9322
head 1.95399 -1.90387 5.11501
rclavicle -3.33958e-014 2.8625e-014
rhumerus -33.5402 15.2826 -102.106
rradius 57.0318
rwrist -10.9388
rhand -28.5255 0.351438
rfingers 7.12502
rthumb -1.89346 -29.6199
lclavicle -3.33958e-014 2.8625e-014
lhumerus -56.3899 6.93909 65.6201
lradius 27.5377
lwrist 14.7369
lhand -22.7281 20.8269
lfingers 7.12502
lthumb 3.70571 50.7744
rfemur 11.3215 -4.81484 23.6496
rtibia 48.4521
rfoot 6.20648 -16.6273
rtoes 13.7314
lfemur -40.9971 13.3884 -15.5915
ltibia 47.8808
lfoot -11.9997 4.75408
ltoes -3.99517
419
root 22.3084 16.0649 -7.00416 492.518 -79.7951 -487.667
lowerback 5.63517 2.15998 -0.428785
upperback 1.71001 2.63791 -4.84424
thorax -1.18397 1.27189 -4.9397
lowerneck -10.4315 -3.38016 -6.68799
upperneck -0.363225 -4.38464 14.1693
head 2.09974 -1.90699 5.18011
rclavicle 5.20816e-014 -1.59028e-014
rhumerus -34.1516 14.5367 -102.155
rradius 53.6132
rwrist -10.8559
rhand -28.4866 0.174574
rfingers 7.12502
rthumb -1.85591 -29.7971
lclavicle 5.20816e-014 -1.59028e-014
lhumerus -54.2729 9.85655 64.9729
lradius 26.6548
lwrist 14.0064
lhand -24.9483 20.8471
lfingers 7.12502
lthumb 1.56152 50.8211
rfemur 9.65416 -4.51468 22.8503
rtibia 51.6287
rfoot 4.72576 -15.9239
rtoes 13.1675
lfemur -38.9878 13.6763 -15.7212
ltibia 47.4369
lfoot -12.8283 4.91131
ltoes -3.56057
420
root 22.0435 16.1334 -6.98495 495.235 -79.6345 -490.765
lowerback 5.50677 2.04725 -0.708998
upperback 1.64634 2.47405 -4.82483
thorax -1.20485 1.18854 -4.74655
lowerneck -10.5583 -3.36859 -6.65459
upperneck 0.104799 -4.42844 14.3748
head 2.26897 -1.90527 5.23296
rclavicle -3.97569e-016 -3.81667e-014
rhumerus -34.6885 13.702 -101.987
rradius 50.054
rwrist -10.5629
rhand -28.0268 -0.027831
rfingers 7.12502
rthumb -1.41176 -30.0029
lclavicle -3.97569e-016 -3.81667e-014
lhumerus -52.181 12.7174 64.6064
lradius 25.955
lwrist 13.3772
lhand -27.1508 20.9235
lfingers 7.12502
lthumb -0.565712 50.9025
rfemur 7.88437 -4.15236 22.2265
rtibia 54.5656
rfoot 3.23078 -14.9634
rtoes 11.9202
lfemur -36.8854 13.9317 -15.7653
ltibia 46.7213
lfoot -13.5956 5.06524
ltoes -3.40447
